# xmcd
#
# Track frame offsets: 
#        150
#        14025
#        31050
#        48975
#        64350
#        80700
#        97650
#        111675
#        124050
#        136050
#        151725
#        164100
#        182775
#        195975
#        210150
#        222675
#        235950
#        255675
#        269925
#        291300
#
# Disc length: 4069 seconds
#
# Revision: 3
# Processed by: cddbd v1.5.2PL0 Copyright (c) Steve Scherf et al.
# Submitted via: ExactAudioCopy v1.3
#
DISCID=320fe314
DTITLE=Anne Murray - Croonin'
DYEAR=1993
DGENRE=Country
TTITLE0=Old Cape Cod
TTITLE1=The Wayward Wind
TTITLE2=Secret Love
TTITLE3=Fever
TTITLE4=When I Fall In Love
TTITLE5=Allegheny Moon
TTITLE6=You Belong To Me
TTITLE7=Born To Be With You
TTITLE8=True Love
TTITLE9=Memories Are Made Of This
TTITLE10=Teach Me Tonight
TTITLE11=Cry Me A River
TTITLE12=Make Love To Me
TTITLE13=Hey There
TTITLE14=It Only Hurts For A Little While
TTITLE15=Round And Round
TTITLE16=I'm A Fool To Care, I'm Conffesin' That I Love You
TTITLE17=Wanted
TTITLE18=I Really Don't Want To Know
TTITLE19=Moments To Remember
EXTD=
EXTT0=
EXTT1=
EXTT2=
EXTT3=
EXTT4=
EXTT5=
EXTT6=
EXTT7=
EXTT8=
EXTT9=
EXTT10=
EXTT11=
EXTT12=
EXTT13=
EXTT14=
EXTT15=
EXTT16=
EXTT17=
EXTT18=
EXTT19=
PLAYORDER=
